<svg xmlns="http://www.w3.org/2000/svg" version="1.1" width="512px" height="512px" style="shape-rendering:geometricPrecision; text-rendering:geometricPrecision; image-rendering:optimizeQuality; fill-rule:evenodd; clip-rule:evenodd" xmlns:xlink="http://www.w3.org/1999/xlink">
<g><path style="opacity:0.958" fill="#00000000" d="M 278.5,18.5 C 283.179,18.3342 287.845,18.5008 292.5,19C 297.727,20.8898 300.727,24.5565 301.5,30C 299.945,38.1104 296.278,45.1104 290.5,51C 295.229,51.2727 299.896,51.9393 304.5,53C 309.436,57.3437 309.769,62.0104 305.5,67C 300.577,68.0616 295.577,68.8949 290.5,69.5C 296.119,75.2381 299.453,82.0715 300.5,90C 300.94,96.5622 297.94,100.562 291.5,102C 268.23,102.731 253.397,91.8981 247,69.5C 238.734,68.0354 236.067,63.3687 239,55.5C 240.959,53.212 243.459,51.8787 246.5,51.5C 251.178,34.4909 261.845,23.4909 278.5,18.5 Z"/></g>
<g><path style="opacity:0.908" fill="#00000000" d="M 326.5,51.5 C 335.863,53.0974 343.696,57.4307 350,64.5C 354.822,69.8853 354.655,75.0519 349.5,80C 346.5,80.6667 343.5,80.6667 340.5,80C 337.5,77 334.5,74 331.5,71C 327.901,69.6906 324.401,68.1906 321,66.5C 317.649,59.2994 319.483,54.2994 326.5,51.5 Z"/></g>
<g><path style="opacity:0.911" fill="#00000000" d="M 352.5,87.5 C 356.221,87.7833 359.054,89.45 361,92.5C 362.715,103.079 361.049,113.079 356,122.5C 351.077,126.617 346.411,126.283 342,121.5C 341.399,119.863 340.899,118.197 340.5,116.5C 343.441,108.753 345.275,100.753 346,92.5C 347.563,89.9771 349.73,88.3104 352.5,87.5 Z"/></g>
<g><path style="opacity:0.9" fill="#00000000" d="M 327.5,127.5 C 338.04,126.197 341.874,130.53 339,140.5C 331.41,146.314 322.91,150.314 313.5,152.5C 305.937,151.263 303.437,146.929 306,139.5C 313.265,135.587 320.432,131.587 327.5,127.5 Z"/></g>
<g><path style="opacity:0.897" fill="#00000000" d="M 236.5,139.5 C 247.588,138.411 251.422,143.078 248,153.5C 247.097,154.701 245.931,155.535 244.5,156C 238.818,156.752 233.151,157.585 227.5,158.5C 219.029,156.258 216.863,151.258 221,143.5C 226.055,141.341 231.222,140.008 236.5,139.5 Z"/></g>
<g><path style="opacity:0.91" fill="#00000000" d="M 267.5,140.5 C 276.173,140.334 284.84,140.5 293.5,141C 298.833,146 298.833,151 293.5,156C 284.887,157.505 276.22,157.839 267.5,157C 262.262,153.726 261.096,149.226 264,143.5C 265.145,142.364 266.312,141.364 267.5,140.5 Z"/></g>
<g><path style="opacity:0.891" fill="#00000000" d="M 199.5,150.5 C 209.537,151.452 212.37,156.452 208,165.5C 204.897,167.303 202.063,169.47 199.5,172C 188.964,175.997 184.464,172.497 186,161.5C 189.769,156.894 194.269,153.227 199.5,150.5 Z"/></g>
<g><path style="opacity:0.96" fill="#00000000" d="M 296.5,163.5 C 299.518,163.335 302.518,163.502 305.5,164C 355.313,179.938 404.98,196.271 454.5,213C 461.629,219.352 463.129,226.852 459,235.5C 447.935,251.722 437.102,268.055 426.5,284.5C 439.319,304.128 452.152,323.795 465,343.5C 467.58,353.807 464.08,360.973 454.5,365C 444.178,368.274 433.845,371.441 423.5,374.5C 423.667,396.169 423.5,417.836 423,439.5C 419.147,450.013 411.647,456.179 400.5,458C 352.292,472.635 303.958,486.802 255.5,500.5C 207.042,486.802 158.708,472.635 110.5,458C 99.3525,456.179 91.8525,450.013 88,439.5C 87.5,417.836 87.3334,396.169 87.5,374.5C 77.1549,371.441 66.8216,368.274 56.5,365C 46.9196,360.973 43.4196,353.807 46,343.5C 58.8476,323.795 71.6809,304.128 84.5,284.5C 73.3475,267.539 62.1808,250.539 51,233.5C 47.6145,223.19 50.7812,215.69 60.5,211C 89.0743,201.531 117.741,192.364 146.5,183.5C 153.595,185.009 156.095,189.343 154,196.5C 152.269,198.617 150.102,200.117 147.5,201C 120.71,209.529 94.0435,218.362 67.5,227.5C 78.196,243.03 88.696,258.697 99,274.5C 130.019,263.952 161.185,253.785 192.5,244C 190.833,243.667 189.167,243.333 187.5,243C 181.69,237.211 178.19,230.378 177,222.5C 179.354,216.905 183.521,215.072 189.5,217C 193.371,221.907 196.871,227.074 200,232.5C 200.847,235.588 200.347,238.421 198.5,241C 212.985,237.229 227.318,232.729 241.5,227.5C 232.47,214.302 223.637,200.969 215,187.5C 214.404,178.085 218.571,174.585 227.5,177C 236.956,190.079 246.29,203.246 255.5,216.5C 266.247,201.34 276.747,186.007 287,170.5C 289.529,167.115 292.696,164.782 296.5,163.5 Z M 300.5,180.5 C 348.362,195.565 396.029,211.232 443.5,227.5C 432.804,243.03 422.304,258.697 412,274.5C 364.47,258.935 316.97,243.268 269.5,227.5C 280.102,211.948 290.436,196.281 300.5,180.5 Z M 255.5,241.5 C 299.237,255.635 342.904,269.968 386.5,284.5C 343.015,298.94 299.515,313.273 256,327.5C 255.5,298.835 255.333,270.169 255.5,241.5 Z M 98.5,294.5 C 145.742,309.525 192.909,324.858 240,340.5C 241.257,340.85 241.591,341.517 241,342.5C 228.753,359.994 216.753,377.66 205,395.5C 157.962,379.782 110.795,364.449 63.5,349.5C 63.3505,348.448 63.5172,347.448 64,346.5C 75.7688,329.281 87.2688,311.948 98.5,294.5 Z M 410.5,294.5 C 423.361,311.175 435.527,328.508 447,346.5C 447.483,347.448 447.649,348.448 447.5,349.5C 400.231,364.534 353.065,379.867 306,395.5C 294.247,377.66 282.247,359.994 270,342.5C 269.409,341.517 269.743,340.85 271,340.5C 317.691,325.378 364.191,310.044 410.5,294.5 Z M 253.5,353.5 C 254.499,396.33 254.832,439.33 254.5,482.5C 204.9,468.578 155.567,453.745 106.5,438C 105.283,436.352 104.45,434.519 104,432.5C 103.5,415.17 103.333,397.837 103.5,380.5C 136.241,390.691 168.907,401.191 201.5,412C 209.243,413.418 215.41,410.918 220,404.5C 231.685,387.785 242.851,370.785 253.5,353.5 Z"/></g>
<g><path style="opacity:0.904" fill="#00000000" d="M 176.5,178.5 C 179.978,178.184 183.312,178.684 186.5,180C 187.958,182.077 188.624,184.41 188.5,187C 188,191.5 187.5,196 187,200.5C 183.984,206.372 179.484,207.872 173.5,205C 172.299,204.097 171.465,202.931 171,201.5C 170.07,194.996 170.736,188.662 173,182.5C 173.69,180.65 174.856,179.316 176.5,178.5 Z"/></g>
</svg>